<svg id="visual" viewBox="0 0 900 600" width="900" height="600" xmlns="http://www.w3.org/2000/svg" xmlns:xlink="http://www.w3.org/1999/xlink" version="1.1"><rect x="0" y="0" width="900" height="600" fill="#fcfbf7"></rect><defs><linearGradient id="grad1_0" x1="33.3%" y1="100%" x2="100%" y2="0%"><stop offset="20%" stop-color="#955ee8" stop-opacity="1"></stop><stop offset="80%" stop-color="#955ee8" stop-opacity="1"></stop></linearGradient></defs><defs><linearGradient id="grad1_1" x1="33.3%" y1="100%" x2="100%" y2="0%"><stop offset="20%" stop-color="#955ee8" stop-opacity="1"></stop><stop offset="80%" stop-color="#e664be" stop-opacity="1"></stop></linearGradient></defs><defs><linearGradient id="grad1_2" x1="33.3%" y1="100%" x2="100%" y2="0%"><stop offset="20%" stop-color="#ff88a0" stop-opacity="1"></stop><stop offset="80%" stop-color="#e664be" stop-opacity="1"></stop></linearGradient></defs><defs><linearGradient id="grad1_3" x1="33.3%" y1="100%" x2="100%" y2="0%"><stop offset="20%" stop-color="#ff88a0" stop-opacity="1"></stop><stop offset="80%" stop-color="#ffb4a0" stop-opacity="1"></stop></linearGradient></defs><defs><linearGradient id="grad1_4" x1="33.3%" y1="100%" x2="100%" y2="0%"><stop offset="20%" stop-color="#f8dbc1" stop-opacity="1"></stop><stop offset="80%" stop-color="#ffb4a0" stop-opacity="1"></stop></linearGradient></defs><defs><linearGradient id="grad1_5" x1="33.3%" y1="100%" x2="100%" y2="0%"><stop offset="20%" stop-color="#f8dbc1" stop-opacity="1"></stop><stop offset="80%" stop-color="#fcfbf7" stop-opacity="1"></stop></linearGradient></defs><defs><linearGradient id="grad2_0" x1="0%" y1="100%" x2="66.7%" y2="0%"><stop offset="20%" stop-color="#955ee8" stop-opacity="1"></stop><stop offset="80%" stop-color="#955ee8" stop-opacity="1"></stop></linearGradient></defs><defs><linearGradient id="grad2_1" x1="0%" y1="100%" x2="66.7%" y2="0%"><stop offset="20%" stop-color="#e664be" stop-opacity="1"></stop><stop offset="80%" stop-color="#955ee8" stop-opacity="1"></stop></linearGradient></defs><defs><linearGradient id="grad2_2" x1="0%" y1="100%" x2="66.7%" y2="0%"><stop offset="20%" stop-color="#e664be" stop-opacity="1"></stop><stop offset="80%" stop-color="#ff88a0" stop-opacity="1"></stop></linearGradient></defs><defs><linearGradient id="grad2_3" x1="0%" y1="100%" x2="66.7%" y2="0%"><stop offset="20%" stop-color="#ffb4a0" stop-opacity="1"></stop><stop offset="80%" stop-color="#ff88a0" stop-opacity="1"></stop></linearGradient></defs><defs><linearGradient id="grad2_4" x1="0%" y1="100%" x2="66.7%" y2="0%"><stop offset="20%" stop-color="#ffb4a0" stop-opacity="1"></stop><stop offset="80%" stop-color="#f8dbc1" stop-opacity="1"></stop></linearGradient></defs><defs><linearGradient id="grad2_5" x1="0%" y1="100%" x2="66.7%" y2="0%"><stop offset="20%" stop-color="#fcfbf7" stop-opacity="1"></stop><stop offset="80%" stop-color="#f8dbc1" stop-opacity="1"></stop></linearGradient></defs><g transform="translate(900, 600)"><path d="M-432.7 0C-388.9 -32.1 -345.1 -64.2 -335.7 -109.1C-326.4 -154 -351.4 -211.7 -335.7 -243.9C-320.1 -276.1 -263.7 -282.8 -225.7 -310.7C-187.8 -338.5 -168.2 -387.6 -133.7 -411.5C-99.2 -435.4 -49.6 -434 0 -432.7L0 0Z" fill="#f7ecdb"></path><path d="M-360.6 0C-324.1 -26.7 -287.6 -53.5 -279.8 -90.9C-272 -128.3 -292.8 -176.4 -279.8 -203.3C-266.7 -230.1 -219.7 -235.7 -188.1 -258.9C-156.5 -282.1 -140.2 -323 -111.4 -342.9C-82.6 -362.8 -41.3 -361.7 0 -360.6L0 0Z" fill="#fcc8ad"></path><path d="M-288.4 0C-259.3 -21.4 -230.1 -42.8 -223.8 -72.7C-217.6 -102.7 -234.3 -141.2 -223.8 -162.6C-213.4 -184.1 -175.8 -188.5 -150.5 -207.1C-125.2 -225.7 -112.2 -258.4 -89.1 -274.3C-66.1 -290.2 -33.1 -289.3 0 -288.4L0 0Z" fill="#ff9e9c"></path><path d="M-216.3 0C-194.4 -16 -172.5 -32.1 -167.9 -54.5C-163.2 -77 -175.7 -105.9 -167.9 -122C-160 -138.1 -131.8 -141.4 -112.9 -155.3C-93.9 -169.3 -84.1 -193.8 -66.9 -205.7C-49.6 -217.7 -24.8 -217 0 -216.3L0 0Z" fill="#f874ac"></path><path d="M-144.2 0C-129.6 -10.7 -115 -21.4 -111.9 -36.4C-108.8 -51.3 -117.1 -70.6 -111.9 -81.3C-106.7 -92 -87.9 -94.3 -75.2 -103.6C-62.6 -112.8 -56.1 -129.2 -44.6 -137.2C-33.1 -145.1 -16.5 -144.7 0 -144.2L0 0Z" fill="#c75dd3"></path><path d="M-72.1 0C-64.8 -5.3 -57.5 -10.7 -56 -18.2C-54.4 -25.7 -58.6 -35.3 -56 -40.7C-53.3 -46 -43.9 -47.1 -37.6 -51.8C-31.3 -56.4 -28 -64.6 -22.3 -68.6C-16.5 -72.6 -8.3 -72.3 0 -72.1L0 0Z" fill="#955ee8"></path></g><g transform="translate(0, 0)"><path d="M432.7 0C402 36.3 371.4 72.6 363.3 118C355.2 163.5 369.6 218 350 254.3C330.5 290.6 276.9 308.7 232.2 319.6C187.5 330.5 151.6 334.2 114.3 351.9C77.1 369.6 38.6 401.1 0 432.7L0 0Z" fill="#f7ecdb"></path><path d="M360.6 0C335 30.3 309.5 60.5 302.8 98.4C296 136.2 308 181.7 291.7 211.9C275.4 242.2 230.8 257.2 193.5 266.3C156.2 275.4 126.3 278.5 95.3 293.2C64.3 308 32.1 334.3 0 360.6L0 0Z" fill="#fcc8ad"></path><path d="M288.4 0C268 24.2 247.6 48.4 242.2 78.7C236.8 109 246.4 145.3 233.4 169.5C220.3 193.7 184.6 205.8 154.8 213C125 220.3 101 222.8 76.2 234.6C51.4 246.4 25.7 267.4 0 288.4L0 0Z" fill="#ff9e9c"></path><path d="M216.3 0C201 18.2 185.7 36.3 181.7 59C177.6 81.7 184.8 109 175 127.2C165.2 145.3 138.5 154.3 116.1 159.8C93.7 165.2 75.8 167.1 57.2 175.9C38.6 184.8 19.3 200.6 0 216.3L0 0Z" fill="#f874ac"></path><path d="M144.2 0C134 12.1 123.8 24.2 121.1 39.3C118.4 54.5 123.2 72.7 116.7 84.8C110.2 96.9 92.3 102.9 77.4 106.5C62.5 110.2 50.5 111.4 38.1 117.3C25.7 123.2 12.9 133.7 0 144.2L0 0Z" fill="#c75dd3"></path><path d="M72.1 0C67 6.1 61.9 12.1 60.6 19.7C59.2 27.2 61.6 36.3 58.3 42.4C55.1 48.4 46.2 51.4 38.7 53.3C31.2 55.1 25.3 55.7 19.1 58.6C12.9 61.6 6.4 66.9 0 72.1L0 0Z" fill="#955ee8"></path></g></svg>