<svg id="visual" viewBox="0 0 900 600" width="900" height="600" xmlns="http://www.w3.org/2000/svg" xmlns:xlink="http://www.w3.org/1999/xlink" version="1.1"><rect x="0" y="0" width="900" height="600" fill="#F7CACA"></rect><defs><linearGradient id="grad1_0" x1="33.3%" y1="0%" x2="100%" y2="100%"><stop offset="20%" stop-color="#f7caca" stop-opacity="1"></stop><stop offset="80%" stop-color="#f7caca" stop-opacity="1"></stop></linearGradient></defs><defs><linearGradient id="grad2_0" x1="0%" y1="0%" x2="66.7%" y2="100%"><stop offset="20%" stop-color="#f7caca" stop-opacity="1"></stop><stop offset="80%" stop-color="#f7caca" stop-opacity="1"></stop></linearGradient></defs><g transform="translate(900, 0)"><path d="M0 324.5C-26.7 285.4 -53.4 246.3 -98.3 237.4C-143.3 228.6 -206.4 249.9 -229.5 229.5C-252.6 209 -235.7 146.6 -244.8 101.4C-254 56.2 -289.3 28.1 -324.5 0L0 0Z" fill="#FBAE3C"></path></g><g transform="translate(0, 600)"><path d="M0 -324.5C42.6 -318.1 85.1 -311.6 122.1 -294.7C159 -277.8 190.4 -250.4 221.3 -221.3C252.2 -192.2 282.7 -161.4 299.8 -124.2C316.9 -87 320.7 -43.5 324.5 0L0 0Z" fill="#FBAE3C"></path></g></svg>