<svg id="visual" viewBox="0 0 900 600" width="900" height="600" xmlns="http://www.w3.org/2000/svg" xmlns:xlink="http://www.w3.org/1999/xlink" version="1.1"><rect x="0" y="0" width="900" height="600" fill="#FFFFFF"></rect><defs><linearGradient id="grad1_0" x1="33.3%" y1="0%" x2="100%" y2="100%"><stop offset="20%" stop-color="#6600ff" stop-opacity="1"></stop><stop offset="80%" stop-color="#6600ff" stop-opacity="1"></stop></linearGradient></defs><defs><linearGradient id="grad1_1" x1="33.3%" y1="0%" x2="100%" y2="100%"><stop offset="20%" stop-color="#6600ff" stop-opacity="1"></stop><stop offset="80%" stop-color="#934cff" stop-opacity="1"></stop></linearGradient></defs><defs><linearGradient id="grad1_2" x1="33.3%" y1="0%" x2="100%" y2="100%"><stop offset="20%" stop-color="#b57bff" stop-opacity="1"></stop><stop offset="80%" stop-color="#934cff" stop-opacity="1"></stop></linearGradient></defs><defs><linearGradient id="grad1_3" x1="33.3%" y1="0%" x2="100%" y2="100%"><stop offset="20%" stop-color="#b57bff" stop-opacity="1"></stop><stop offset="80%" stop-color="#d1a7ff" stop-opacity="1"></stop></linearGradient></defs><defs><linearGradient id="grad1_4" x1="33.3%" y1="0%" x2="100%" y2="100%"><stop offset="20%" stop-color="#ead3ff" stop-opacity="1"></stop><stop offset="80%" stop-color="#d1a7ff" stop-opacity="1"></stop></linearGradient></defs><defs><linearGradient id="grad1_5" x1="33.3%" y1="0%" x2="100%" y2="100%"><stop offset="20%" stop-color="#ead3ff" stop-opacity="1"></stop><stop offset="80%" stop-color="#ffffff" stop-opacity="1"></stop></linearGradient></defs><defs><linearGradient id="grad2_0" x1="0%" y1="0%" x2="66.7%" y2="100%"><stop offset="20%" stop-color="#6600ff" stop-opacity="1"></stop><stop offset="80%" stop-color="#6600ff" stop-opacity="1"></stop></linearGradient></defs><defs><linearGradient id="grad2_1" x1="0%" y1="0%" x2="66.7%" y2="100%"><stop offset="20%" stop-color="#934cff" stop-opacity="1"></stop><stop offset="80%" stop-color="#6600ff" stop-opacity="1"></stop></linearGradient></defs><defs><linearGradient id="grad2_2" x1="0%" y1="0%" x2="66.7%" y2="100%"><stop offset="20%" stop-color="#934cff" stop-opacity="1"></stop><stop offset="80%" stop-color="#b57bff" stop-opacity="1"></stop></linearGradient></defs><defs><linearGradient id="grad2_3" x1="0%" y1="0%" x2="66.7%" y2="100%"><stop offset="20%" stop-color="#d1a7ff" stop-opacity="1"></stop><stop offset="80%" stop-color="#b57bff" stop-opacity="1"></stop></linearGradient></defs><defs><linearGradient id="grad2_4" x1="0%" y1="0%" x2="66.7%" y2="100%"><stop offset="20%" stop-color="#d1a7ff" stop-opacity="1"></stop><stop offset="80%" stop-color="#ead3ff" stop-opacity="1"></stop></linearGradient></defs><defs><linearGradient id="grad2_5" x1="0%" y1="0%" x2="66.7%" y2="100%"><stop offset="20%" stop-color="#ffffff" stop-opacity="1"></stop><stop offset="80%" stop-color="#ead3ff" stop-opacity="1"></stop></linearGradient></defs><g transform="translate(900, 0)"><path d="M0 432.7C-51.5 438.9 -103 445.1 -133.7 411.5C-164.4 377.9 -174.3 304.6 -191.6 263.7C-209 222.9 -233.8 214.6 -275.9 200.4C-317.9 186.3 -377.1 166.3 -406.1 132C-435.1 97.6 -433.9 48.8 -432.7 0L0 0Z" fill="#f5e9ff"></path><path d="M0 360.6C-42.9 365.7 -85.8 370.9 -111.4 342.9C-137 314.9 -145.2 253.8 -159.7 219.8C-174.2 185.8 -194.9 178.8 -229.9 167C-264.9 155.2 -314.3 138.6 -338.4 110C-362.6 81.3 -361.6 40.7 -360.6 0L0 0Z" fill="#debdff"></path><path d="M0 288.4C-34.3 292.6 -68.7 296.7 -89.1 274.3C-109.6 251.9 -116.2 203 -127.7 175.8C-139.3 148.6 -155.9 143.1 -183.9 133.6C-211.9 124.2 -251.4 110.9 -270.7 88C-290.1 65 -289.3 32.5 -288.4 0L0 0Z" fill="#c391ff"></path><path d="M0 216.3C-25.8 219.4 -51.5 222.5 -66.9 205.7C-82.2 189 -87.1 152.3 -95.8 131.9C-104.5 111.5 -116.9 107.3 -137.9 100.2C-159 93.1 -188.6 83.2 -203.1 66C-217.5 48.8 -216.9 24.4 -216.3 0L0 0Z" fill="#a564ff"></path><path d="M0 144.2C-17.2 146.3 -34.3 148.4 -44.6 137.2C-54.8 126 -58.1 101.5 -63.9 87.9C-69.7 74.3 -77.9 71.5 -92 66.8C-106 62.1 -125.7 55.4 -135.4 44C-145 32.5 -144.6 16.3 -144.2 0L0 0Z" fill="#7e31ff"></path><path d="M0 72.1C-8.6 73.1 -17.2 74.2 -22.3 68.6C-27.4 63 -29 50.8 -31.9 44C-34.8 37.2 -39 35.8 -46 33.4C-53 31 -62.9 27.7 -67.7 22C-72.5 16.3 -72.3 8.1 -72.1 0L0 0Z" fill="#6600ff"></path></g><g transform="translate(0, 600)"><path d="M0 -432.7C27 -374.4 54.1 -316.1 100.4 -309.1C146.8 -302.1 212.5 -346.5 243.3 -334.9C274.2 -323.4 270.3 -255.9 297.7 -216.3C325.1 -176.7 383.8 -165.1 411.5 -133.7C439.2 -102.3 435.9 -51.2 432.7 0L0 0Z" fill="#f5e9ff"></path><path d="M0 -360.6C22.5 -312 45.1 -263.4 83.7 -257.6C122.3 -251.8 177 -288.7 202.8 -279.1C228.5 -269.5 225.3 -213.2 248.1 -180.3C270.9 -147.3 319.8 -137.6 342.9 -111.4C366 -85.3 363.3 -42.6 360.6 0L0 0Z" fill="#debdff"></path><path d="M0 -288.4C18 -249.6 36.1 -210.7 67 -206.1C97.9 -201.4 141.6 -231 162.2 -223.3C182.8 -215.6 180.2 -170.6 198.5 -144.2C216.7 -117.8 255.9 -110.1 274.3 -89.1C292.8 -68.2 290.6 -34.1 288.4 0L0 0Z" fill="#c391ff"></path><path d="M0 -216.3C13.5 -187.2 27 -158 50.2 -154.5C73.4 -151.1 106.2 -173.2 121.7 -167.5C137.1 -161.7 135.2 -127.9 148.9 -108.2C162.6 -88.4 191.9 -82.5 205.7 -66.9C219.6 -51.2 218 -25.6 216.3 0L0 0Z" fill="#a564ff"></path><path d="M0 -144.2C9 -124.8 18 -105.4 33.5 -103C48.9 -100.7 70.8 -115.5 81.1 -111.6C91.4 -107.8 90.1 -85.3 99.2 -72.1C108.4 -58.9 127.9 -55 137.2 -44.6C146.4 -34.1 145.3 -17.1 144.2 0L0 0Z" fill="#7e31ff"></path><path d="M0 -72.1C4.5 -62.4 9 -52.7 16.7 -51.5C24.5 -50.4 35.4 -57.7 40.6 -55.8C45.7 -53.9 45.1 -42.6 49.6 -36.1C54.2 -29.5 64 -27.5 68.6 -22.3C73.2 -17.1 72.7 -8.5 72.1 0L0 0Z" fill="#6600ff"></path></g></svg>